<svg xmlns="http://www.w3.org/2000/svg" viewBox="0 0 317 72"><title>  ZocDoc</title><style type="text/css">  
	.st0{fill:#fff;}
</style><path class="st0" d="M78.7 59.3c-6.4 0-11.4-5.2-11.4-11.9 0-6.6 5-11.9 11.4-11.9 6.3 0 11.5 5.3 11.5 11.9C90.2 53.9 85.1 59.3 78.7 59.3M78.7 22.8c-13.5 0-24.5 11-24.5 24.6C54.2 61 65.2 72 78.7 72c13.5 0 24.5-11 24.5-24.6C103.2 33.8 92.2 22.8 78.7 22.8"/><path class="st0" d="M185.2 59.6c-7 0-12.2-5.3-12.2-12.3 0-7 5.3-12.2 12.2-12.2 6.7 0 11.7 5.3 11.7 12.2C196.9 54.2 191.8 59.6 185.2 59.6M196.5 27.9c-3.4-3.3-8.2-5.1-13.6-5.1 -11.4 0-23 8.5-23 24.6 0 9.6 4.2 15.4 7.7 18.6 4.2 3.8 9.8 6.1 15.2 6.1 5.5 0 10.5-2.1 13.8-5.7v4.8h13.4V0h-13.4V27.9z"/><path class="st0" d="M241.3 59.3c-6.4 0-11.4-5.2-11.4-11.9 0-6.6 5-11.9 11.4-11.9 6.3 0 11.5 5.3 11.5 11.9C252.8 53.9 247.6 59.3 241.3 59.3M241.3 22.8c-13.5 0-24.5 11-24.5 24.6 0 13.6 11 24.6 24.5 24.6 13.5 0 24.5-11 24.5-24.6C265.8 33.8 254.8 22.8 241.3 22.8"/><path class="st0" d="M133.4 59.3c-6.5 0-11.7-5.2-11.7-11.9 0-6.6 5.1-11.9 11.7-11.9 4.2 0 7.9 2.2 10 5.7l11.1-6.8c-4.4-7.3-12.2-11.7-21.1-11.7 -13.5 0-24.5 11-24.5 24.6 0 13.6 11 24.6 24.5 24.6 8.9 0 16.7-4.4 21.1-11.7l-11.1-6.8C141.4 57.1 137.6 59.3 133.4 59.3"/><path class="st0" d="M295.9 59.3c-6.5 0-11.7-5.2-11.7-11.9 0-6.6 5.1-11.9 11.7-11.9 4.2 0 7.9 2.2 10 5.7l11.1-6.8c-4.4-7.3-12.2-11.7-21.1-11.7 -13.5 0-24.5 11-24.5 24.6 0 13.6 11 24.6 24.5 24.6 8.9 0 16.7-4.4 21.1-11.7l-11.1-6.8C303.8 57.1 300.1 59.3 295.9 59.3"/><path class="st0" d="M0.6 59.6c-0.3 0.6-0.5 1.1-0.5 1.6 0 0 0 0.1 0 0.3v9.6l0 0 0 0h50V58H18.1c0 0 31.4-46.5 31.5-46.5 0.4-0.6 0.5-1.1 0.5-1.6 0 0 0-0.1 0-0.3V0l0 0 0 0H0v13.1h32C32 13.1 0.6 59.6 0.6 59.6z"/></svg>